<?xml version="1.0" standalone="no"?>
<!DOCTYPE svg PUBLIC "-//W3C//DTD SVG 20010904//EN"
 "http://www.w3.org/TR/2001/REC-SVG-20010904/DTD/svg10.dtd">
<svg version="1.0" xmlns="http://www.w3.org/2000/svg"
 width="172.000000pt" height="172.000000pt" viewBox="0 0 172.000000 172.000000"
 preserveAspectRatio="xMidYMid meet">
<metadata>
Created by potrace 1.14, written by Peter Selinger 2001-2017
</metadata>
<g transform="translate(0.000000,172.000000) scale(0.100000,-0.100000)"
fill="#000000" stroke="none">
<path d="M597 1701 c-36 -23 -52 -47 -65 -92 -11 -43 -7 -51 32 -64 39 -13 65
-51 70 -100 4 -40 4 -40 -48 -63 -52 -23 -126 -88 -151 -133 -61 -109 -80
-192 -73 -322 12 -214 155 -463 418 -727 74 -74 203 -190 212 -190 2 0 -12 32
-31 72 -33 66 -36 79 -35 157 1 98 23 194 56 246 26 39 78 65 123 59 93 -11
138 -12 160 -4 29 11 55 58 55 98 0 21 6 31 20 35 22 6 27 36 8 55 -9 9 -9 15
0 24 19 19 14 56 -8 63 -18 6 -19 8 -4 30 22 33 10 60 -36 86 -51 29 -60 49
-64 151 -7 166 -61 259 -183 315 -58 27 -75 31 -150 40 l-52 6 -16 72 c-21 93
-63 167 -108 189 -46 21 -95 20 -130 -3z"/>
</g>
</svg>
